<svg id="visual" viewBox="0 0 1080 1920" width="1080" height="1920" xmlns="http://www.w3.org/2000/svg" xmlns:xlink="http://www.w3.org/1999/xlink" version="1.1"><path d="M0 1085L25.7 1095.7C51.3 1106.3 102.7 1127.7 154.2 1176.3C205.7 1225 257.3 1301 308.8 1347.8C360.3 1394.7 411.7 1412.3 463 1422.2C514.3 1432 565.7 1434 617 1417C668.3 1400 719.7 1364 771.2 1364.5C822.7 1365 874.3 1402 925.8 1426C977.3 1450 1028.7 1461 1054.3 1466.5L1080 1472L1080 1921L1054.3 1921C1028.7 1921 977.3 1921 925.8 1921C874.3 1921 822.7 1921 771.2 1921C719.7 1921 668.3 1921 617 1921C565.7 1921 514.3 1921 463 1921C411.7 1921 360.3 1921 308.8 1921C257.3 1921 205.7 1921 154.2 1921C102.7 1921 51.3 1921 25.7 1921L0 1921Z" fill="#0066FF" stroke-linecap="round" stroke-linejoin="miter"></path></svg>